<svg width="1439" height="238" viewBox="0 0 1439 238" fill="none" xmlns="http://www.w3.org/2000/svg">
<g clip-path="url(#clip0_34_3)">
<path fill-rule="evenodd" clip-rule="evenodd" d="M351.31 58.6795H19.482C36.484 52.1548 56.8106 45.1764 78.7895 38.8321H301.743C316.212 44.7468 332.906 51.4658 351.31 58.6795ZM277.703 28.9084H117.208C173.525 16.1412 233.986 10.6528 275.012 27.7857C275.893 28.1536 276.79 28.5279 277.703 28.9084ZM-1 68.6032H376.92C393.691 75.0263 411.523 81.7046 430.101 88.4505H-1V68.6032ZM-1 98.3742V118.222H516.44C496.531 111.751 476.903 105.074 457.859 98.3742H-1ZM-1 128.145H547.751C570.761 135.244 593.933 141.951 616.813 147.993H-1V128.145ZM1233.99 128.145H1043.51C1029.05 132.273 1015.16 136.771 1001.13 141.313L1001.13 141.313L1001.13 141.314L1001.13 141.314L1001.12 141.315L1001.1 141.322L1001.09 141.326C994.221 143.55 987.317 145.785 980.298 147.993H1266.35L1265.7 147.557L1265.7 147.554L1265.69 147.553C1264.36 146.652 1263.26 145.914 1262.43 145.381C1261.89 145.036 1261.11 144.466 1260.09 143.715L1260.09 143.714L1260.08 143.712C1255.83 140.589 1247.32 134.345 1233.99 128.145ZM1084.01 118.222H1206.55C1181.73 111.515 1148.12 107.955 1104.44 114.618C1097.4 115.693 1090.6 116.901 1084.01 118.222ZM-1 157.916V177.764H1328.35C1327.4 177.584 1326.49 177.375 1325.62 177.137C1308.78 172.504 1293.47 164.726 1281.94 157.916H946.512C907.485 168.371 861.982 176.519 798.69 177.137C758.275 177.532 709.07 169.972 656.828 157.916H-1ZM1437.15 157.916H1439V177.764H1354.36C1381.86 174.715 1417.15 164.639 1437.15 157.916ZM-1 187.687H1439V208.031H-1V187.687ZM-1 217.955V238.298H1439V217.955H-1ZM-1 260V248.222H1439V260H-1Z" fill="#EEEDE9"/>
<path d="M19.482 58.6795L19.3028 58.2127L19.482 59.1795V58.6795ZM351.31 58.6795V59.1795L351.492 58.214L351.31 58.6795ZM78.7895 38.8321V38.3321H78.7188L78.6508 38.3518L78.7895 38.8321ZM301.743 38.8321L301.932 38.3693L301.841 38.3321H301.743V38.8321ZM117.208 28.9085L117.098 28.4208L117.208 29.4085V28.9085ZM277.703 28.9085V29.4085L277.895 28.4469L277.703 28.9085ZM275.012 27.7857L274.819 28.2471V28.2471L275.012 27.7857ZM376.92 68.6032L377.098 68.1363L377.012 68.1032H376.92V68.6032ZM-1 68.6032V68.1032H-1.5V68.6032H-1ZM430.101 88.4506V88.9506L430.272 87.9806L430.101 88.4506ZM-1 88.4506H-1.5V88.9506H-1V88.4506ZM-1 118.222H-1.5V118.722H-1V118.222ZM-1 98.3743V97.8743H-1.5V98.3743H-1ZM516.44 118.222V118.722L516.594 117.746L516.44 118.222ZM457.859 98.3743L458.025 97.9026L457.944 97.8743H457.859V98.3743ZM547.751 128.145L547.899 127.668L547.827 127.645H547.751V128.145ZM-1 128.145V127.645H-1.5V128.145H-1ZM616.813 147.993V148.493L616.941 147.509L616.813 147.993ZM-1 147.993H-1.5V148.493H-1V147.993ZM1043.51 128.145V127.645H1043.44L1043.37 127.665L1043.51 128.145ZM1233.99 128.145L1234.2 127.692L1234.1 127.645H1233.99V128.145ZM1001.13 141.313L1000.98 140.837L1000.97 140.841L1000.96 140.845L1001.13 141.313ZM1001.13 141.313L1001.28 141.79L1001.29 141.786L1001.31 141.781L1001.13 141.313ZM1001.13 141.314L1001.28 141.791L1001.13 141.314ZM1001.13 141.314L1000.98 140.837L1000.97 140.841L1001.13 141.314ZM1001.12 141.315L1001.28 141.791L1001.29 141.788L1001.12 141.315ZM1001.1 141.322L1000.95 140.846L1000.95 140.846L1001.1 141.322ZM1001.09 141.326L1001.25 141.801L1001.25 141.801L1001.09 141.326ZM980.298 147.993L980.148 147.516L980.298 148.493V147.993ZM1266.35 147.993V148.493H1267.99L1266.63 147.578L1266.35 147.993ZM1265.7 147.557L1265.41 147.967L1265.42 147.972L1265.7 147.557ZM1265.7 147.554L1265.98 147.144L1265.97 147.133L1265.95 147.124L1265.7 147.554ZM1265.69 147.553L1265.41 147.968L1265.43 147.976L1265.44 147.983L1265.69 147.553ZM1262.43 145.381L1262.16 145.802V145.802L1262.43 145.381ZM1260.09 143.715L1259.78 144.106L1259.78 144.112L1259.79 144.118L1260.09 143.715ZM1260.09 143.714L1260.4 143.323L1260.39 143.314L1260.37 143.305L1260.09 143.714ZM1260.08 143.712L1259.79 144.115L1259.8 144.121L1260.08 143.712ZM1206.55 118.222V118.722L1206.68 117.739L1206.55 118.222ZM1084.01 118.222L1083.91 117.731L1084.01 118.722V118.222ZM1104.44 114.618L1104.36 114.124L1104.44 114.618ZM-1 177.764H-1.5V178.264H-1V177.764ZM-1 157.916V157.416H-1.5V157.916H-1ZM1328.35 177.764V178.264L1328.45 177.272L1328.35 177.764ZM1325.62 177.137L1325.49 177.619L1325.62 177.137ZM1281.94 157.916L1282.2 157.486L1282.08 157.416H1281.94V157.916ZM946.512 157.916V157.416H946.446L946.382 157.433L946.512 157.916ZM798.69 177.137L798.685 176.637L798.69 177.137ZM656.828 157.916L656.941 157.429L656.885 157.416H656.828V157.916ZM1439 157.916H1439.5V157.416H1439V157.916ZM1437.15 157.916V157.416H1437.07L1436.99 157.442L1437.15 157.916ZM1439 177.764V178.264H1439.5V177.764H1439ZM1354.36 177.764L1354.3 177.267L1354.36 178.264V177.764ZM1439 187.687H1439.5V187.187H1439V187.687ZM-1 187.687V187.187H-1.5V187.687H-1ZM1439 208.031V208.531H1439.5V208.031H1439ZM-1 208.031H-1.5V208.531H-1V208.031ZM-1 238.298H-1.5V238.798H-1V238.298ZM-1 217.955V217.455H-1.5V217.955H-1ZM1439 238.298V238.798H1439.5V238.298H1439ZM1439 217.955H1439.5V217.455H1439V217.955ZM-1 248.222V247.722H-1.5V248.222H-1ZM-1 260H-1.5V260.5H-1V260ZM1439 248.222H1439.5V247.722H1439V248.222ZM1439 260V260.5H1439.5V260H1439ZM19.482 59.1795H351.31V58.1795H19.482V59.1795ZM78.6508 38.3518C56.6575 44.7002 36.3173 51.6832 19.3028 58.2127L19.6611 59.1463C36.6506 52.6265 56.9637 45.6526 78.9282 39.3125L78.6508 38.3518ZM301.743 38.3321H78.7895V39.3321H301.743V38.3321ZM351.492 58.214C333.091 51.0013 316.399 44.2832 301.932 38.3693L301.554 39.295C316.025 45.2104 332.721 51.9304 351.127 59.145L351.492 58.214ZM117.208 29.4085H277.703V28.4085H117.208V29.4085ZM275.204 27.3243C254.6 18.7197 229.149 15.8073 201.829 16.6348C174.504 17.4624 145.276 22.0327 117.098 28.4208L117.319 29.3961C145.457 23.017 174.618 18.4594 201.859 17.6343C229.106 16.809 254.398 19.7189 274.819 28.2471L275.204 27.3243ZM277.895 28.4469C276.982 28.0665 276.085 27.6922 275.204 27.3243L274.819 28.2471C275.7 28.6151 276.597 28.9894 277.51 29.37L277.895 28.4469ZM376.92 68.1032H-1V69.1032H376.92V68.1032ZM430.272 87.9806C411.696 81.2358 393.868 74.5585 377.098 68.1363L376.741 69.0701C393.515 75.4942 411.349 82.1735 429.931 88.9205L430.272 87.9806ZM-1 88.9506H430.101V87.9506H-1V88.9506ZM-1.5 68.6032V88.4506H-0.5V68.6032H-1.5ZM-0.5 118.222V98.3743H-1.5V118.222H-0.5ZM516.44 117.722H-1V118.722H516.44V117.722ZM457.693 98.8459C476.74 105.547 496.372 112.225 516.285 118.697L516.594 117.746C496.69 111.277 477.066 104.601 458.025 97.9026L457.693 98.8459ZM-1 98.8743H457.859V97.8743H-1V98.8743ZM547.751 127.645H-1V128.645H547.751V127.645ZM616.941 147.509C594.068 141.47 570.903 134.765 547.899 127.668L547.604 128.623C570.62 135.724 593.798 142.432 616.686 148.476L616.941 147.509ZM-1 148.493H616.813V147.493H-1V148.493ZM-1.5 128.145V147.993H-0.5V128.145H-1.5ZM1043.51 128.645H1233.99V127.645H1043.51V128.645ZM1001.28 141.789C1015.31 137.246 1029.2 132.751 1043.65 128.626L1043.37 127.665C1028.9 131.795 1015 136.296 1000.98 140.837L1001.28 141.789ZM1001.31 141.781L1001.31 141.781L1000.96 140.845L1000.95 140.845L1001.31 141.781ZM1001.28 141.791L1001.28 141.79L1000.98 140.836L1000.98 140.836L1001.28 141.791ZM1001.28 141.792L1001.28 141.791L1000.98 140.836L1000.98 140.837L1001.28 141.792ZM1001.29 141.788L1001.29 141.788L1000.97 140.841L1000.96 140.842L1001.29 141.788ZM1001.26 141.798L1001.28 141.791L1000.97 140.839L1000.95 140.846L1001.26 141.798ZM1001.25 141.801L1001.26 141.797L1000.95 140.846L1000.94 140.85L1001.25 141.801ZM980.448 148.47C987.47 146.262 994.375 144.026 1001.25 141.801L1000.94 140.85C994.067 143.075 987.165 145.309 980.148 147.516L980.448 148.47ZM1266.35 147.493H980.298V148.493H1266.35V147.493ZM1265.42 147.972L1266.07 148.408L1266.63 147.578L1265.98 147.142L1265.42 147.972ZM1265.41 147.964L1265.41 147.967L1265.99 147.147L1265.98 147.144L1265.41 147.964ZM1265.44 147.983L1265.44 147.984L1265.95 147.124L1265.95 147.123L1265.44 147.983ZM1262.16 145.802C1262.98 146.332 1264.07 147.066 1265.41 147.968L1265.97 147.138C1264.64 146.239 1263.53 145.497 1262.7 144.96L1262.16 145.802ZM1259.79 144.118C1260.81 144.865 1261.6 145.447 1262.16 145.802L1262.7 144.96C1262.17 144.626 1261.41 144.068 1260.38 143.312L1259.79 144.118ZM1259.77 144.105L1259.78 144.106L1260.4 143.324L1260.4 143.323L1259.77 144.105ZM1259.8 144.121L1259.8 144.123L1260.37 143.305L1260.37 143.302L1259.8 144.121ZM1233.77 128.599C1247.06 134.777 1255.54 140.999 1259.79 144.115L1260.38 143.309C1256.11 140.179 1247.57 133.912 1234.2 127.692L1233.77 128.599ZM1206.55 117.722H1084.01V118.722H1206.55V117.722ZM1104.52 115.112C1148.13 108.459 1181.67 112.017 1206.42 118.704L1206.68 117.739C1181.79 111.014 1148.11 107.451 1104.36 114.124L1104.52 115.112ZM1084.11 118.712C1090.69 117.393 1097.48 116.186 1104.52 115.112L1104.36 114.124C1097.31 115.2 1090.51 116.41 1083.91 117.731L1084.11 118.712ZM-0.5 177.764V157.916H-1.5V177.764H-0.5ZM1328.35 177.264H-1V178.264H1328.35V177.264ZM1325.49 177.619C1326.37 177.861 1327.29 178.073 1328.26 178.255L1328.45 177.272C1327.5 177.095 1326.61 176.889 1325.75 176.655L1325.49 177.619ZM1281.69 158.347C1293.24 165.168 1308.58 172.97 1325.49 177.619L1325.75 176.655C1308.97 172.038 1293.71 164.284 1282.2 157.486L1281.69 158.347ZM946.512 158.416H1281.94V157.416H946.512V158.416ZM798.695 177.637C862.032 177.019 907.577 168.864 946.641 158.399L946.382 157.433C907.393 167.878 861.932 176.02 798.685 176.637L798.695 177.637ZM656.716 158.404C708.973 170.462 758.222 178.032 798.695 177.637L798.685 176.637C758.327 177.031 709.166 169.481 656.941 157.429L656.716 158.404ZM-1 158.416H656.828V157.416H-1V158.416ZM1439 157.416H1437.15V158.416H1439V157.416ZM1439.5 177.764V157.916H1438.5V177.764H1439.5ZM1354.36 178.264H1439V177.264H1354.36V178.264ZM1436.99 157.442C1417 164.161 1381.75 174.224 1354.3 177.267L1354.41 178.261C1381.96 175.206 1417.3 165.117 1437.31 158.39L1436.99 157.442ZM1439 187.187H-1V188.187H1439V187.187ZM1439.5 208.031V187.687H1438.5V208.031H1439.5ZM-1 208.531H1439V207.531H-1V208.531ZM-1.5 187.687V208.031H-0.5V187.687H-1.5ZM-0.5 238.298V217.955H-1.5V238.298H-0.5ZM1439 237.798H-1V238.798H1439V237.798ZM1438.5 217.955V238.298H1439.5V217.955H1438.5ZM-1 218.455H1439V217.455H-1V218.455ZM-1.5 248.222V260H-0.5V248.222H-1.5ZM1439 247.722H-1V248.722H1439V247.722ZM1439.5 260V248.222H1438.5V260H1439.5ZM-1 260.5H1439V259.5H-1V260.5Z" fill="#EEEDE9"/>
<path fill-rule="evenodd" clip-rule="evenodd" d="M1379.59 124.65C1379.52 124.569 1379.45 124.487 1379.37 124.405H1389.86C1389.38 125.226 1386.13 130.579 1380.33 136.607H1367.91C1373.16 132.465 1377.1 127.916 1379.59 124.65ZM1356.59 126.167C1356.59 125.572 1356.56 124.984 1356.5 124.405H1323.35C1323.29 124.984 1323.26 125.572 1323.26 126.167C1323.26 130.119 1324.64 133.75 1326.94 136.607H1352.92C1355.22 133.75 1356.59 130.119 1356.59 126.167ZM1385.25 118.452H1373.28C1367.8 113.765 1360.12 108.786 1350.53 106.548H1371.32C1377.44 110.513 1382.11 114.988 1385.25 118.452ZM1359.62 100.595C1353.84 98.4127 1347.28 97 1339.99 97C1332.82 97 1326.31 98.4127 1320.55 100.595H1359.62ZM1308.84 106.548C1302.69 110.513 1297.94 114.988 1294.73 118.452H1306.72C1312.25 113.756 1319.97 108.784 1329.51 106.548H1308.84ZM1339.93 109.5C1333.51 109.5 1327.94 113.133 1325.15 118.452H1354.7C1351.92 113.133 1346.35 109.5 1339.93 109.5ZM1300.5 124.471L1300.56 124.405H1290C1290.55 125.226 1294.2 130.579 1300.31 136.607H1312.95C1307.53 132.424 1303.26 127.811 1300.5 124.471ZM1342.95 142.56C1341.97 142.739 1340.96 142.833 1339.93 142.833C1338.9 142.833 1337.88 142.739 1336.9 142.56H1342.95ZM1322.32 142.56C1327.63 145.215 1333.58 147 1339.99 147C1346.95 147 1353.17 145.212 1358.55 142.56H1373.87C1367.09 148.071 1358.25 153.106 1347.49 154.762H1332.96C1322.77 153.106 1313.96 148.071 1307.02 142.56H1322.32Z" fill="#EEEDE9"/>
<path fill-rule="evenodd" clip-rule="evenodd" d="M900.903 42.9166C878.499 34.251 850.82 26.4914 818.426 22.9166H914.298C931.984 29.3409 946.997 36.3613 959.213 42.9166H900.903ZM647.053 22.9166H742.355C710.121 26.4893 682.406 34.2434 659.872 42.9166H601.672C614.082 36.3613 629.271 29.3409 647.053 22.9166ZM780.272 0C742.001 0 708.124 5.28648 679.161 12.9166H882.268C853.291 5.28648 819.176 0 780.272 0ZM830.42 42.9166C817.353 35.6938 799.58 31.25 780 31.25C760.42 31.25 742.647 35.6938 729.58 42.9166H830.42ZM843.758 52.9166C849.437 58.8544 852.667 65.6705 852.667 72.9167H707.333C707.333 65.6705 710.563 58.8544 716.242 52.9166H843.758ZM636.687 52.9166H584.105C569.6 61.819 562 68.2396 562 68.2396C562 68.2396 563.96 69.971 567.729 72.9166H614.375C612.116 71.4335 610.019 70.0145 608.089 68.6771C615.316 64.1055 624.905 58.5731 636.687 52.9166ZM923.938 52.9166H976.462C990.665 61.819 998 68.2396 998 68.2396C998 68.2396 996.276 69.971 992.876 72.9166H947.736C949.602 71.5925 951.333 70.3242 952.928 69.125C945.76 64.4927 936.043 58.7762 923.938 52.9166ZM581.424 82.9166H630.636C642.092 89.513 655.853 96.536 671.544 102.917H614.33C600.944 95.7244 589.878 88.7231 581.424 82.9166ZM830.427 102.917C840.126 97.5552 847.232 90.6621 850.56 82.9166H709.44C712.768 90.6621 719.874 97.5552 729.573 102.917H830.427ZM892.96 102.917C908.495 96.5176 921.734 89.485 932.521 82.9166H980.363C972.557 88.7231 962.204 95.7244 949.396 102.917H892.96ZM800.413 112.917C793.937 114.002 787.087 114.583 780 114.583C772.913 114.583 766.063 114.002 759.587 112.917H800.413ZM699.896 112.917C723.867 120.094 750.969 125 780.272 125C812.103 125 840.34 120.086 864.6 112.917H930.062C914.678 120.225 896.775 127.248 876.45 132.917H688.29C668.241 127.248 650.16 120.225 634.358 112.917H699.896ZM736.47 142.917H826.796C812.162 144.779 796.647 145.833 780.272 145.833C765.069 145.833 750.445 144.779 736.47 142.917Z" fill="#EEEDE9"/>
</g>
<defs>
<clipPath id="clip0_34_3">
<rect width="1440" height="238" fill="white" transform="translate(-1)"/>
</clipPath>
</defs>
</svg>
