<svg width="1439" height="244" viewBox="0 0 1439 244" fill="none" xmlns="http://www.w3.org/2000/svg">
<path fill-rule="evenodd" clip-rule="evenodd" d="M225.227 46C182.114 50.7577 140.155 57.9322 102.216 66H496.263C472.089 56.6445 445.353 50.1556 417.06 46H225.227ZM0 92.3921C16.9844 87.0793 36.8547 81.481 58.8531 76H518.892C528.599 80.8795 537.765 86.3291 546.308 92.3921C548.02 93.6075 549.727 94.81 551.428 96H0V92.3921ZM0 106V126H597.338C587.14 119.814 576.702 113.159 566.025 106H0ZM0 136H614.321C627.677 143.625 640.593 150.432 653.06 156.5H0V136ZM1290.63 136H1063.71C1039.73 141.66 1016.03 148.916 993.694 156.5H1439V145.315C1436.53 145.529 1434.06 146.019 1431.16 146.596C1422.8 148.257 1410.86 150.631 1384.98 149.152C1369.84 148.287 1353.77 145.716 1333.75 142.513C1321.18 140.502 1307.05 138.243 1290.63 136ZM1122.65 126H1182.96C1175.3 125.59 1167.34 125.22 1159.06 124.896C1147.18 124.432 1135 124.859 1122.65 126ZM0 166.5V187H729.877C712.732 181.805 694.326 175.089 674.694 166.5H0ZM0 218V197H769.967C816.666 206.052 850.894 203.246 871.577 199.171C874.251 198.645 877.224 197.912 880.475 197H1439V218H0ZM0 228V244H1439V228H0ZM1439 187H910.286C917.453 184.378 925.174 181.474 933.357 178.397L933.388 178.385L933.4 178.381L933.404 178.379C943.415 174.614 954.118 170.59 965.347 166.5H1439V187Z" fill="#212121"/>
<path fill-rule="evenodd" clip-rule="evenodd" d="M1428.66 87.4833C1428.59 87.4024 1428.52 87.3206 1428.44 87.2381H1438.94C1438.45 88.0594 1435.21 93.4124 1429.4 99.4405H1416.98C1422.23 95.2986 1426.17 90.7498 1428.66 87.4833ZM1405.67 89C1405.67 88.4049 1405.64 87.8171 1405.57 87.2381H1372.43C1372.36 87.8171 1372.33 88.4049 1372.33 89C1372.33 92.9523 1373.71 96.5834 1376.01 99.4405H1401.99C1404.29 96.5834 1405.67 92.9523 1405.67 89ZM1434.32 81.2857H1422.35C1416.87 76.5984 1409.19 71.6197 1399.6 69.381H1420.4C1426.51 73.3466 1431.19 77.8214 1434.32 81.2857ZM1408.7 63.4286C1402.91 61.246 1396.36 59.8333 1389.06 59.8333C1381.89 59.8333 1375.39 61.246 1369.62 63.4286H1408.7ZM1357.91 69.381C1351.76 73.3466 1347.01 77.8214 1343.8 81.2857H1355.79C1361.32 76.5895 1369.04 71.6174 1378.58 69.381H1357.91ZM1389 72.3333C1382.58 72.3333 1377.01 75.966 1374.22 81.2857H1403.78C1400.99 75.966 1395.42 72.3333 1389 72.3333ZM1349.57 87.3042L1349.63 87.2381H1339.07C1339.62 88.0594 1343.27 93.4124 1349.38 99.4405H1362.02C1356.6 95.2578 1352.33 90.6442 1349.57 87.3042ZM1392.02 105.393C1391.04 105.573 1390.03 105.667 1389 105.667C1387.97 105.667 1386.96 105.573 1385.98 105.393H1392.02ZM1371.4 105.393C1376.7 108.049 1382.65 109.833 1389.06 109.833C1396.02 109.833 1402.24 108.046 1407.62 105.393H1422.94C1416.16 110.905 1407.32 115.939 1396.56 117.595H1382.03C1371.84 115.939 1363.04 110.905 1356.09 105.393H1371.4Z" fill="#212121"/>
<path fill-rule="evenodd" clip-rule="evenodd" d="M917.038 42.9167C897.204 34.2511 872.699 26.4915 844.02 22.9167H928.897C944.554 29.341 957.846 36.3613 968.661 42.9167H917.038ZM692.299 22.9167H776.672C748.134 26.4894 723.597 34.2435 703.648 42.9167H652.122C663.109 36.3613 676.556 29.341 692.299 22.9167ZM810.241 0C776.358 0 746.367 5.2865 720.725 12.9167H900.541C874.886 5.2865 844.684 0 810.241 0ZM854.638 42.9167C843.069 35.6939 827.335 31.25 810 31.25C792.665 31.25 776.931 35.6939 765.362 42.9167H854.638ZM866.446 52.9167C871.474 58.8544 874.333 65.6705 874.333 72.9167H745.667C745.667 65.6705 748.526 58.8544 753.554 52.9167H866.446ZM683.122 52.9167H636.57C623.728 61.819 617 68.2396 617 68.2396C617 68.2396 618.735 69.971 622.072 72.9167H663.369C661.369 71.4335 659.512 70.0145 657.803 68.6771C664.202 64.1055 672.691 58.5732 683.122 52.9167ZM937.432 52.9167H983.932C996.507 61.819 1003 68.2396 1003 68.2396C1003 68.2396 1001.47 69.971 998.463 72.9167H958.5C960.152 71.5926 961.685 70.3242 963.097 69.125C956.751 64.4927 948.148 58.7762 937.432 52.9167ZM634.196 82.9167H677.765C687.907 89.5131 700.091 96.536 713.982 102.917H663.329C651.478 95.7244 641.681 88.7232 634.196 82.9167ZM854.644 102.917C863.231 97.5553 869.522 90.6621 872.468 82.9167H747.532C750.478 90.6621 756.769 97.5553 765.356 102.917H854.644ZM910.005 102.917C923.759 96.5176 935.48 89.485 945.03 82.9167H987.386C980.475 88.7232 971.309 95.7244 959.97 102.917H910.005ZM828.072 112.917C822.339 114.002 816.274 114.583 810 114.583C803.726 114.583 797.661 114.002 791.928 112.917H828.072ZM739.082 112.917C760.305 120.095 784.298 125 810.241 125C838.422 125 863.42 120.086 884.898 112.917H942.853C929.233 120.225 913.384 127.248 895.389 132.917H728.808C711.058 127.248 695.05 120.225 681.06 112.917H739.082ZM771.463 142.917H851.429C838.473 144.779 824.738 145.833 810.241 145.833C796.782 145.833 783.834 144.779 771.463 142.917Z" fill="#212121"/>
</svg>
