<svg width="1439" height="249" viewBox="0 0 1439 249" fill="none" xmlns="http://www.w3.org/2000/svg">
<path fill-rule="evenodd" clip-rule="evenodd" d="M1404.75 101C1409.12 95.039 1412.47 88.2875 1414.56 81H1292.44C1294.53 88.2875 1297.88 95.039 1302.25 101H1404.75ZM1417 63.5C1417 66.0375 1416.85 68.5403 1416.56 71H1290.44C1290.15 68.5403 1290 66.0375 1290 63.5C1290 59.2213 1290.42 55.0414 1291.23 51H1415.77C1416.58 55.0414 1417 59.2213 1417 63.5ZM1412.9 41C1410.08 33.566 1405.91 26.7988 1400.68 21H1306.32C1301.09 26.7988 1296.92 33.566 1294.1 41H1412.9ZM1353.5 0C1366.75 0 1379.05 4.05841 1389.23 11H1317.77C1327.95 4.05841 1340.25 0 1353.5 0ZM1311.36 111C1322.57 120.954 1337.33 127 1353.5 127C1369.67 127 1384.43 120.954 1395.64 111H1311.36Z" fill="#212121"/>
<path fill-rule="evenodd" clip-rule="evenodd" d="M225.227 51C182.114 55.7577 140.155 62.9322 102.216 71H496.263C472.089 61.6445 445.353 55.1556 417.06 51H225.227ZM0 97.3921C16.9844 92.0793 36.8547 86.481 58.8531 81H518.892C528.599 85.8795 537.765 91.3291 546.308 97.3921C548.02 98.6075 549.727 99.81 551.428 101H0V97.3921ZM0 111V131H597.338C587.14 124.814 576.702 118.159 566.025 111H0ZM0 141H614.321C627.677 148.625 640.593 155.432 653.06 161.5H0V141ZM1290.63 141H1063.71C1039.73 146.66 1016.03 153.916 993.694 161.5H1439V150.315C1436.53 150.529 1434.06 151.019 1431.16 151.596C1422.8 153.257 1410.86 155.631 1384.98 154.152C1369.84 153.287 1353.77 150.716 1333.75 147.513C1321.18 145.502 1307.05 143.243 1290.63 141ZM1122.65 131H1182.96C1175.3 130.59 1167.34 130.22 1159.06 129.896C1147.18 129.432 1135 129.859 1122.65 131ZM0 171.5V192H729.877C712.732 186.805 694.326 180.089 674.694 171.5H0ZM0 223V202H769.967C816.666 211.052 850.894 208.246 871.577 204.171C874.251 203.645 877.224 202.912 880.475 202H1439V223H0ZM0 233V249H1439V233H0ZM1439 192H910.286C917.453 189.378 925.174 186.474 933.357 183.397L933.388 183.385L933.4 183.381L933.404 183.379C943.415 179.614 954.118 175.59 965.347 171.5H1439V192Z" fill="#212121"/>
<path fill-rule="evenodd" clip-rule="evenodd" d="M899 150C911.905 150 924.049 146.741 934.653 141H863.347C873.951 146.741 886.095 150 899 150ZM849.109 131H948.891C955.27 125.313 960.672 118.551 964.811 111H833.189C837.328 118.551 842.73 125.313 849.109 131ZM828.629 101C826.297 94.6894 824.789 87.9791 824.237 81H973.763C973.211 87.9791 971.703 94.6894 969.371 101H828.629ZM827.922 51C825.785 57.3306 824.471 64.0396 824.105 71H973.895C973.529 64.0396 972.215 57.3306 970.078 51H827.922ZM832.131 41C835.941 33.5222 840.968 26.7685 846.952 21H951.048C957.032 26.7685 962.059 33.5222 965.869 41H832.131ZM899 0C884.664 0 871.267 4.02233 859.877 11H938.123C926.733 4.02233 913.336 0 899 0Z" fill="#212121"/>
</svg>
