<svg width="1439" height="273" viewBox="0 0 1439 273" fill="none" xmlns="http://www.w3.org/2000/svg">
<g clip-path="url(#clip0_61_80)">
<path fill-rule="evenodd" clip-rule="evenodd" d="M543.242 68C535.272 60.6561 526.786 54.0045 517.848 48H60.955C41.0594 54.6564 22.8639 61.455 6.91909 68H543.242ZM455.17 18C471.442 23.3096 486.961 29.9215 501.497 38H92.5795C117.082 30.6903 143.433 23.8278 170.813 18H455.17ZM416.466 8.00001C356.744 -3.76511 290.125 -1.50873 226.018 8.00001H416.466ZM0 78V98H575.765C568.554 91.6507 561.231 84.9887 553.798 78H0ZM0 108H587.33C595.675 115.082 603.864 121.741 611.895 128H0V108ZM0 138V158H653.642C644.357 151.903 634.824 145.251 625.045 138H0ZM1040.39 138C1024.13 144.098 1008.17 150.949 992.863 158H1439V142.485C1436.53 142.774 1434.06 143.438 1431.16 144.218C1422.8 146.466 1410.86 149.678 1384.98 147.677C1369.84 146.507 1353.77 143.028 1333.75 138.694C1332.69 138.465 1331.62 138.234 1330.54 138H1040.39ZM1280.1 128C1249 122.625 1210.07 117.561 1159.06 114.86C1130.4 113.342 1099.93 118.855 1069.76 128H1280.1ZM0 168H669.45C682.42 175.889 694.868 182.678 706.784 188.5H0V168ZM1439 168H971.773C958.192 174.607 945.309 181.162 933.405 187.219H933.404L930.886 188.5H1439V168ZM0 198.5V219H804.152C782.687 216.424 757.564 210.324 728.948 198.5H0ZM0 250V229H1439V250H0ZM0 260V276H1439V260H0ZM1439 198.5V219H853.089C860.124 218.054 866.292 216.758 871.577 215.35C881.206 212.783 894.719 206.605 911.058 198.5H1439Z" fill="#212121"/>
<path fill-rule="evenodd" clip-rule="evenodd" d="M955.325 55.9167C942.479 47.2511 926.608 39.4915 908.034 35.9167H963.006C973.147 42.341 981.755 49.3613 988.76 55.9167H955.325ZM809.769 35.9167H864.414C845.931 39.4894 830.04 47.2435 817.119 55.9167H783.748C790.863 49.3613 799.573 42.341 809.769 35.9167ZM886.156 13C864.211 13 844.787 18.2865 828.179 25.9167H944.64C928.025 18.2865 908.464 13 886.156 13ZM914.911 55.9167C907.418 48.6939 897.227 44.25 886 44.25C874.773 44.25 864.582 48.6939 857.089 55.9167H914.911ZM849.441 65.9167H922.559C925.815 71.8544 927.667 78.6705 927.667 85.9167H844.333C844.333 78.6705 846.185 71.8544 849.441 65.9167ZM803.825 65.9167H773.675C765.358 74.819 761 81.2396 761 81.2396C761 81.2396 762.124 82.971 764.285 85.9167H791.032C789.736 84.4335 788.534 83.0145 787.427 81.6771C791.571 77.1055 797.07 71.5732 803.825 65.9167ZM968.533 65.9167H998.65C1006.79 74.819 1011 81.2396 1011 81.2396C1011 81.2396 1010.01 82.971 1008.06 85.9167H982.179C983.249 84.5926 984.242 83.3242 985.156 82.125C981.046 77.4927 975.474 71.7762 968.533 65.9167ZM772.137 95.9167H800.356C806.924 102.513 814.815 109.536 823.812 115.917H791.006C783.33 108.724 776.985 101.723 772.137 95.9167ZM914.915 115.917C920.476 110.555 924.55 103.662 926.459 95.9167H845.541C847.45 103.662 851.524 110.555 857.085 115.917H914.915ZM950.77 115.917C959.678 109.518 967.27 102.485 973.455 95.9167H1000.89C996.411 101.723 990.475 108.724 983.131 115.917H950.77ZM897.705 125.917C893.991 127.002 890.064 127.583 886 127.583C881.936 127.583 878.009 127.002 874.295 125.917H897.705ZM840.069 125.917C853.814 133.095 869.354 138 886.156 138C904.408 138 920.599 133.086 934.509 125.917H972.045C963.224 133.225 952.958 140.248 941.304 145.917H833.414C821.918 140.248 811.55 133.225 802.49 125.917H840.069ZM861.041 155.917H912.832C904.441 157.779 895.545 158.833 886.156 158.833C877.439 158.833 869.053 157.779 861.041 155.917Z" fill="#212121"/>
<path fill-rule="evenodd" clip-rule="evenodd" d="M1406.73 66.1667C1401.59 62.7004 1395.24 59.5966 1387.81 58.1667H1409.8C1413.86 60.7364 1417.3 63.5445 1420.1 66.1667H1406.73ZM1348.51 58.1667H1370.37C1362.97 59.5958 1356.62 62.6974 1351.45 66.1667H1338.1C1340.95 63.5445 1344.43 60.7364 1348.51 58.1667ZM1379.06 49C1370.28 49 1362.51 51.1146 1355.87 54.1667H1402.46C1395.81 51.1146 1387.99 49 1379.06 49ZM1390.56 66.1667C1387.57 63.2775 1383.49 61.5 1379 61.5C1374.51 61.5 1370.43 63.2775 1367.44 66.1667H1390.56ZM1393.62 70.1667C1394.93 72.5418 1395.67 75.2682 1395.67 78.1667H1362.33C1362.33 75.2682 1363.07 72.5418 1364.38 70.1667H1393.62ZM1346.13 70.1667H1334.07C1330.74 73.7276 1329 76.2958 1329 76.2958C1329 76.2958 1329.45 76.9884 1330.31 78.1667H1341.01C1340.49 77.5734 1340.01 77.0058 1339.57 76.4708C1341.23 74.6422 1343.43 72.4293 1346.13 70.1667ZM1412.01 70.1667H1424.06C1427.32 73.7276 1429 76.2958 1429 76.2958C1429 76.2958 1428.6 76.9884 1427.82 78.1667H1417.47C1417.9 77.637 1418.3 77.1297 1418.66 76.65C1417.02 74.7971 1414.79 72.5105 1412.01 70.1667ZM1333.45 82.1667H1344.74C1347.37 84.8052 1350.53 87.6144 1354.12 90.1667H1341C1337.93 87.2898 1335.39 84.4893 1333.45 82.1667ZM1390.57 90.1667C1392.79 88.0221 1394.42 85.2648 1395.18 82.1667H1362.82C1363.58 85.2648 1365.21 88.0221 1367.43 90.1667H1390.57ZM1404.91 90.1667C1408.47 87.607 1411.51 84.794 1413.98 82.1667H1424.95C1423.16 84.4893 1420.79 87.2898 1417.85 90.1667H1404.91ZM1383.68 94.1667C1382.2 94.6006 1380.63 94.8333 1379 94.8333C1377.37 94.8333 1375.8 94.6006 1374.32 94.1667H1383.68ZM1360.63 94.1667C1366.13 97.0378 1372.34 99 1379.06 99C1386.36 99 1392.84 97.0345 1398.4 94.1667H1413.42C1409.89 97.09 1405.78 99.8993 1401.12 102.167H1357.97C1353.37 99.8993 1349.22 97.09 1345.6 94.1667H1360.63ZM1369.02 106.167H1389.73C1386.38 106.912 1382.82 107.333 1379.06 107.333C1375.58 107.333 1372.22 106.912 1369.02 106.167Z" fill="#212121"/>
</g>
<defs>
<clipPath id="clip0_61_80">
<rect width="1439" height="273" fill="white"/>
</clipPath>
</defs>
</svg>
