<svg width="1439" height="273" viewBox="0 0 1439 273" fill="none" xmlns="http://www.w3.org/2000/svg">
<path fill-rule="evenodd" clip-rule="evenodd" d="M543.242 68C535.272 60.6561 526.786 54.0045 517.848 48H60.955C41.0594 54.6564 22.8639 61.455 6.91909 68H543.242ZM455.17 18C471.442 23.3096 486.961 29.9215 501.497 38H92.5795C117.082 30.6903 143.433 23.8278 170.813 18H455.17ZM416.466 8.00001C356.744 -3.76511 290.125 -1.50873 226.018 8.00001H416.466ZM0 78V98H575.765C568.554 91.6507 561.231 84.9887 553.798 78H0ZM0 108H587.33C595.675 115.082 603.864 121.741 611.895 128H0V108ZM0 138V158H653.642C644.357 151.903 634.824 145.251 625.045 138H0ZM1040.39 138C1024.13 144.098 1008.17 150.949 992.863 158H1439V142.485C1436.53 142.774 1434.06 143.438 1431.16 144.218C1422.8 146.466 1410.86 149.678 1384.98 147.677C1369.84 146.507 1353.77 143.028 1333.75 138.694C1332.69 138.465 1331.62 138.234 1330.54 138H1040.39ZM1280.1 128C1249 122.625 1210.07 117.561 1159.06 114.86C1130.4 113.342 1099.93 118.855 1069.76 128H1280.1ZM0 168H669.45C682.42 175.889 694.868 182.678 706.784 188.5H0V168ZM1439 168H971.773C958.192 174.607 945.309 181.162 933.405 187.219L933.404 187.219L930.886 188.5H1439V168ZM0 198.5V219H804.152C782.687 216.424 757.564 210.324 728.948 198.5H0ZM0 250V229H1439V250H0ZM0 260V276H1439V260H0ZM1439 198.5V219H853.089C860.124 218.054 866.292 216.758 871.577 215.35C881.206 212.783 894.719 206.605 911.058 198.5H1439Z" fill="#212121"/>
</svg>
