<svg width="1439" height="248" viewBox="0 0 1439 248" fill="none" xmlns="http://www.w3.org/2000/svg">
<g clip-path="url(#clip0_34_3)">
<path fill-rule="evenodd" clip-rule="evenodd" d="M352.31 58.6795H20.482C37.484 52.1549 57.8106 45.1764 79.7895 38.8321H302.743C317.212 44.7468 333.906 51.4658 352.31 58.6795ZM278.703 28.9085H118.208C174.525 16.1412 234.986 10.6529 276.012 27.7857C276.893 28.1536 277.79 28.5279 278.703 28.9085ZM0 68.6032H377.92C394.691 75.0264 412.523 81.7047 431.101 88.4506H0V68.6032ZM0 98.3742V118.222H517.44C497.531 111.751 477.903 105.074 458.859 98.3742H0ZM0 128.145H548.751C571.761 135.245 594.933 141.951 617.813 147.993H0V128.145ZM1234.99 128.145H1044.51C1030.05 132.273 1016.16 136.771 1002.13 141.313L1002.13 141.313L1002.13 141.314L1002.13 141.314L1002.12 141.315L1002.1 141.322L1002.09 141.326C995.221 143.55 988.317 145.785 981.298 147.993H1267.35L1266.7 147.557L1266.7 147.554L1266.69 147.553C1265.36 146.652 1264.26 145.914 1263.43 145.381C1262.89 145.036 1262.11 144.466 1261.09 143.715L1261.09 143.714L1261.08 143.712C1256.83 140.589 1248.32 134.345 1234.99 128.145ZM1085.01 118.222H1207.55C1182.73 111.515 1149.12 107.955 1105.44 114.618C1098.4 115.693 1091.6 116.901 1085.01 118.222ZM0 157.916V177.764H1329.35C1328.4 177.584 1327.49 177.375 1326.62 177.137C1309.78 172.504 1294.47 164.726 1282.94 157.916H947.512C908.485 168.371 862.982 176.519 799.69 177.137C759.275 177.532 710.07 169.972 657.828 157.916H0ZM1438.15 157.916H1440V177.764H1355.36C1382.86 174.715 1418.15 164.639 1438.15 157.916ZM0 187.687H1440V208.031H0V187.687ZM0 217.955V238.298H1440V217.955H0ZM0 260V248.222H1440V260H0Z" fill="#EEEDE9"/>
<path d="M20.482 58.6795L20.3028 58.2127L20.482 59.1795V58.6795ZM352.31 58.6795V59.1795L352.492 58.214L352.31 58.6795ZM79.7895 38.8321V38.3321H79.7188L79.6508 38.3518L79.7895 38.8321ZM302.743 38.8321L302.932 38.3693L302.841 38.3321H302.743V38.8321ZM118.208 28.9085L118.098 28.4208L118.208 29.4085V28.9085ZM278.703 28.9085V29.4085L278.895 28.4469L278.703 28.9085ZM276.012 27.7857L275.819 28.2471L275.819 28.2471L276.012 27.7857ZM377.92 68.6032L378.098 68.1363L378.012 68.1032H377.92V68.6032ZM0 68.6032V68.1032H-0.5V68.6032H0ZM431.101 88.4506V88.9506L431.272 87.9806L431.101 88.4506ZM0 88.4506H-0.5V88.9506H0V88.4506ZM0 118.222H-0.5V118.722H0V118.222ZM0 98.3742V97.8742H-0.5V98.3742H0ZM517.44 118.222V118.722L517.594 117.746L517.44 118.222ZM458.859 98.3742L459.025 97.9026L458.944 97.8742H458.859V98.3742ZM548.751 128.145L548.899 127.668L548.827 127.645H548.751V128.145ZM0 128.145V127.645H-0.5V128.145H0ZM617.813 147.993V148.493L617.941 147.509L617.813 147.993ZM0 147.993H-0.5V148.493H0V147.993ZM1044.51 128.145V127.645H1044.44L1044.37 127.665L1044.51 128.145ZM1234.99 128.145L1235.2 127.692L1235.1 127.645H1234.99V128.145ZM1002.13 141.313L1001.98 140.837L1001.97 140.841L1001.96 140.845L1002.13 141.313ZM1002.13 141.313L1002.28 141.79L1002.29 141.786L1002.31 141.781L1002.13 141.313ZM1002.13 141.314L1002.28 141.791L1002.13 141.314ZM1002.13 141.314L1001.98 140.837L1001.97 140.841L1002.13 141.314ZM1002.12 141.315L1002.28 141.791L1002.29 141.788L1002.12 141.315ZM1002.1 141.322L1001.95 140.846L1001.95 140.846L1002.1 141.322ZM1002.09 141.326L1002.25 141.801L1002.25 141.801L1002.09 141.326ZM981.298 147.993L981.148 147.516L981.298 148.493V147.993ZM1267.35 147.993V148.493H1268.99L1267.63 147.578L1267.35 147.993ZM1266.7 147.557L1266.41 147.967L1266.42 147.972L1266.7 147.557ZM1266.7 147.554L1266.98 147.144L1266.97 147.133L1266.95 147.124L1266.7 147.554ZM1266.69 147.553L1266.41 147.968L1266.43 147.976L1266.44 147.983L1266.69 147.553ZM1263.43 145.381L1263.16 145.802L1263.16 145.802L1263.43 145.381ZM1261.09 143.715L1260.78 144.106L1260.78 144.112L1260.79 144.118L1261.09 143.715ZM1261.09 143.714L1261.4 143.323L1261.39 143.314L1261.37 143.305L1261.09 143.714ZM1261.08 143.712L1260.79 144.115L1260.8 144.121L1261.08 143.712ZM1207.55 118.222V118.722L1207.68 117.739L1207.55 118.222ZM1085.01 118.222L1084.91 117.731L1085.01 118.722V118.222ZM1105.44 114.618L1105.37 114.124L1105.37 114.124L1105.44 114.618ZM0 177.764H-0.5V178.264H0V177.764ZM0 157.916V157.416H-0.5V157.916H0ZM1329.35 177.764V178.264L1329.45 177.272L1329.35 177.764ZM1326.62 177.137L1326.49 177.619L1326.49 177.619L1326.62 177.137ZM1282.94 157.916L1283.2 157.486L1283.08 157.416H1282.94V157.916ZM947.512 157.916V157.416H947.446L947.382 157.433L947.512 157.916ZM799.69 177.137L799.685 176.637L799.685 176.637L799.69 177.137ZM657.828 157.916L657.941 157.429L657.885 157.416H657.828V157.916ZM1440 157.916H1440.5V157.416H1440V157.916ZM1438.15 157.916V157.416H1438.07L1437.99 157.442L1438.15 157.916ZM1440 177.764V178.264H1440.5V177.764H1440ZM1355.36 177.764L1355.3 177.267L1355.36 178.264V177.764ZM1440 187.687H1440.5V187.187H1440V187.687ZM0 187.687V187.187H-0.5V187.687H0ZM1440 208.031V208.531H1440.5V208.031H1440ZM0 208.031H-0.5V208.531H0V208.031ZM0 238.298H-0.5V238.798H0V238.298ZM0 217.955V217.455H-0.5V217.955H0ZM1440 238.298V238.798H1440.5V238.298H1440ZM1440 217.955H1440.5V217.455H1440V217.955ZM0 248.222V247.722H-0.5V248.222H0ZM0 260H-0.5V260.5H0V260ZM1440 248.222H1440.5V247.722H1440V248.222ZM1440 260V260.5H1440.5V260H1440ZM20.482 59.1795H352.31V58.1795H20.482V59.1795ZM79.6508 38.3518C57.6575 44.7002 37.3173 51.6832 20.3028 58.2127L20.6611 59.1463C37.6506 52.6265 57.9637 45.6526 79.9282 39.3125L79.6508 38.3518ZM302.743 38.3321H79.7895V39.3321H302.743V38.3321ZM352.492 58.214C334.091 51.0013 317.399 44.2832 302.932 38.3693L302.554 39.295C317.025 45.2104 333.721 51.9304 352.127 59.145L352.492 58.214ZM118.208 29.4085H278.703V28.4085H118.208V29.4085ZM276.204 27.3243C255.6 18.7197 230.149 15.8073 202.829 16.6348C175.504 17.4624 146.276 22.0327 118.098 28.4208L118.319 29.3961C146.457 23.017 175.618 18.4594 202.859 17.6343C230.106 16.809 255.398 19.7189 275.819 28.2471L276.204 27.3243ZM278.895 28.4469C277.982 28.0665 277.085 27.6922 276.204 27.3243L275.819 28.2471C276.7 28.6151 277.597 28.9894 278.511 29.37L278.895 28.4469ZM377.92 68.1032H0V69.1032H377.92V68.1032ZM431.272 87.9806C412.696 81.2358 394.868 74.5585 378.098 68.1363L377.741 69.0701C394.515 75.4942 412.349 82.1735 430.931 88.9205L431.272 87.9806ZM0 88.9506H431.101V87.9506H0V88.9506ZM-0.5 68.6032V88.4506H0.5V68.6032H-0.5ZM0.5 118.222V98.3742H-0.5V118.222H0.5ZM517.44 117.722H0V118.722H517.44V117.722ZM458.693 98.8459C477.74 105.547 497.372 112.225 517.285 118.697L517.594 117.746C497.69 111.277 478.066 104.601 459.025 97.9026L458.693 98.8459ZM0 98.8742H458.859V97.8742H0V98.8742ZM548.751 127.645H0V128.645H548.751V127.645ZM617.941 147.509C595.068 141.47 571.903 134.765 548.899 127.668L548.604 128.623C571.619 135.724 594.798 142.432 617.686 148.476L617.941 147.509ZM0 148.493H617.813V147.493H0V148.493ZM-0.5 128.145V147.993H0.5V128.145H-0.5ZM1044.51 128.645H1234.99V127.645H1044.51V128.645ZM1002.28 141.789C1016.31 137.246 1030.2 132.751 1044.65 128.626L1044.37 127.665C1029.9 131.795 1016 136.296 1001.98 140.837L1002.28 141.789ZM1002.31 141.781L1002.31 141.781L1001.96 140.845L1001.95 140.845L1002.31 141.781ZM1002.28 141.791L1002.28 141.79L1001.98 140.836L1001.98 140.836L1002.28 141.791ZM1002.28 141.792L1002.28 141.791L1001.98 140.836L1001.98 140.837L1002.28 141.792ZM1002.29 141.788L1002.29 141.788L1001.97 140.841L1001.96 140.842L1002.29 141.788ZM1002.26 141.797L1002.28 141.791L1001.97 140.839L1001.95 140.846L1002.26 141.797ZM1002.25 141.801L1002.26 141.797L1001.95 140.846L1001.94 140.85L1002.25 141.801ZM981.448 148.47C988.47 146.262 995.375 144.026 1002.25 141.801L1001.94 140.85C995.067 143.075 988.165 145.309 981.148 147.516L981.448 148.47ZM1267.35 147.493H981.298V148.493H1267.35V147.493ZM1266.42 147.972L1267.07 148.408L1267.63 147.578L1266.98 147.142L1266.42 147.972ZM1266.41 147.964L1266.41 147.967L1266.99 147.147L1266.98 147.144L1266.41 147.964ZM1266.44 147.983L1266.44 147.984L1266.95 147.124L1266.95 147.123L1266.44 147.983ZM1263.16 145.802C1263.98 146.332 1265.07 147.066 1266.41 147.968L1266.97 147.138C1265.64 146.239 1264.53 145.497 1263.7 144.96L1263.16 145.802ZM1260.79 144.118C1261.81 144.865 1262.6 145.447 1263.16 145.802L1263.7 144.96C1263.17 144.626 1262.41 144.068 1261.38 143.312L1260.79 144.118ZM1260.77 144.105L1260.78 144.106L1261.4 143.324L1261.4 143.323L1260.77 144.105ZM1260.8 144.121L1260.8 144.123L1261.37 143.305L1261.37 143.302L1260.8 144.121ZM1234.77 128.599C1248.06 134.777 1256.54 140.999 1260.79 144.115L1261.38 143.309C1257.11 140.179 1248.57 133.912 1235.2 127.692L1234.77 128.599ZM1207.55 117.722H1085.01V118.722H1207.55V117.722ZM1105.52 115.112C1149.13 108.459 1182.67 112.017 1207.42 118.704L1207.68 117.739C1182.79 111.014 1149.11 107.451 1105.37 114.124L1105.52 115.112ZM1085.11 118.712C1091.69 117.393 1098.48 116.186 1105.52 115.112L1105.37 114.124C1098.31 115.2 1091.51 116.41 1084.91 117.731L1085.11 118.712ZM0.5 177.764V157.916H-0.5V177.764H0.5ZM1329.35 177.264H0V178.264H1329.35V177.264ZM1326.49 177.619C1327.37 177.861 1328.29 178.073 1329.26 178.255L1329.45 177.272C1328.5 177.095 1327.61 176.889 1326.75 176.655L1326.49 177.619ZM1282.69 158.347C1294.24 165.168 1309.58 172.97 1326.49 177.619L1326.75 176.655C1309.97 172.038 1294.71 164.284 1283.2 157.486L1282.69 158.347ZM947.512 158.416H1282.94V157.416H947.512V158.416ZM799.695 177.637C863.032 177.019 908.577 168.864 947.641 158.399L947.382 157.433C908.393 167.878 862.932 176.02 799.685 176.637L799.695 177.637ZM657.716 158.404C709.973 170.462 759.222 178.032 799.695 177.637L799.685 176.637C759.327 177.031 710.166 169.481 657.941 157.429L657.716 158.404ZM0 158.416H657.828V157.416H0V158.416ZM1440 157.416H1438.15V158.416H1440V157.416ZM1440.5 177.764V157.916H1439.5V177.764H1440.5ZM1355.36 178.264H1440V177.264H1355.36V178.264ZM1437.99 157.442C1418 164.161 1382.75 174.224 1355.3 177.267L1355.41 178.261C1382.96 175.206 1418.3 165.117 1438.31 158.39L1437.99 157.442ZM1440 187.187H0V188.187H1440V187.187ZM1440.5 208.031V187.687H1439.5V208.031H1440.5ZM0 208.531H1440V207.531H0V208.531ZM-0.5 187.687V208.031H0.5V187.687H-0.5ZM0.5 238.298V217.955H-0.5V238.298H0.5ZM1440 237.798H0V238.798H1440V237.798ZM1439.5 217.955V238.298H1440.5V217.955H1439.5ZM0 218.455H1440V217.455H0V218.455ZM-0.5 248.222V260H0.5V248.222H-0.5ZM1440 247.722H0V248.722H1440V247.722ZM1440.5 260V248.222H1439.5V260H1440.5ZM0 260.5H1440V259.5H0V260.5Z" fill="#EEEDE9"/>
</g>
<defs>
<clipPath id="clip0_34_3">
<rect width="1440" height="248" fill="white"/>
</clipPath>
</defs>
</svg>
