<svg width="30" height="30" viewBox="0 0 30 30" fill="none" xmlns="http://www.w3.org/2000/svg">
<path d="M23.75 0H6.25C2.79875 0 0 2.79875 0 6.25V23.75C0 27.2013 2.79875 30 6.25 30H23.75C27.2025 30 30 27.2013 30 23.75V6.25C30 2.79875 27.2025 0 23.75 0ZM18.1675 24.4875C17.6613 24.585 17.5 24.2737 17.5 24.0075V21.2638C17.5 20.33 17.1725 19.7225 16.8125 19.4125C19.04 19.165 21.38 18.3188 21.38 14.4788C21.38 13.3863 20.99 12.4937 20.3512 11.795C20.4538 11.5425 20.7962 10.525 20.2525 9.14875C20.2525 9.14875 19.4137 8.88 17.505 10.1737C16.705 9.94875 15.85 9.84 15 9.835C14.15 9.83875 13.295 9.94875 12.4963 10.1713C10.5862 8.8775 9.74625 9.14625 9.74625 9.14625C9.20375 10.5238 9.54625 11.54 9.65 11.7938C9.01 12.4938 8.62 13.385 8.62 14.4775C8.62 18.3075 10.9538 19.1663 13.1763 19.42C12.89 19.67 12.6313 20.11 12.5413 20.7575C11.97 21.0125 10.5238 21.4537 9.63125 19.925C9.63125 19.925 9.1025 18.965 8.0975 18.8937C8.0975 18.8937 7.1225 18.8813 8.02875 19.5025C8.02875 19.5025 8.685 19.81 9.14 20.965C9.14 20.965 9.71875 22.75 12.5 22.145V24.0063C12.5 24.27 12.3387 24.58 11.84 24.4875C7.865 23.1663 5 19.4175 5 15C5 9.47625 9.4775 5 15 5C20.5225 5 25 9.47625 25 15C25 19.4163 22.1388 23.1637 18.1675 24.4875Z" fill="#F5F5F5"/>
</svg>
